<svg xmlns="http://www.w3.org/2000/svg" viewBox="0 0 512 512"><path fill="#fff" d="m278.977 52.602-42.156 73.781-22.203-37-55.172 91.945h193.093L278.977 52.602zM217.617 160h-20.484l17.484-29.156 10.062 16.781L217.617 160zm24.563 0 36.797-64.398L315.773 160H242.18zm67.156 245.328H202.664c-5.891 0-10.672 4.766-10.672 10.672 0 5.891 4.781 10.656 10.672 10.656h106.672A10.65 10.65 0 0 0 319.992 416c0-5.906-4.765-10.672-10.656-10.672zm53.328-42.672H149.336c-5.891 0-10.672 4.781-10.672 10.672S143.445 384 149.336 384h213.328c5.891 0 10.672-4.781 10.672-10.672s-4.781-10.672-10.672-10.672z"/><path fill="#fff" d="M447.992 0h-384c-5.891 0-10.656 4.773-10.656 10.664v224c0 5.891 4.766 10.664 10.656 10.664h384c5.891 0 10.672-4.773 10.672-10.664v-224C458.664 4.773 453.883 0 447.992 0zm-10.656 224H74.664V21.328h362.672V224zm10.656 42.664h-384c-5.891 0-10.656 4.773-10.656 10.664v224c0 5.891 4.766 10.672 10.656 10.672h384c5.891 0 10.672-4.781 10.672-10.672v-224c0-5.89-4.781-10.664-10.672-10.664zm-10.656 223.992H74.664V288h362.672v202.656z"/></svg>