<svg xmlns="http://www.w3.org/2000/svg" width="243.223" height="363.26"><path d="M120.76 292.96c-11.866-.007-23.736.17-35.598-.054-13.38-.253-20.446-6.01-19.473-18.96 1.875-24.954-9.648-43.663-25.33-60.808C16.31 186.847-.173 157.523 0 120.583.288 59.592 48.788 5.57 108.293.499c65.46-5.578 121.59 36.1 132.804 98.647 6.693 37.33-2.5 70.5-26.34 99.772-7.27 8.925-14.935 17.543-21.904 26.693-10.155 13.333-16.522 27.881-15.783 45.396.707 16.783-4.968 21.801-21.756 21.941-11.517.096-23.035.018-34.553.011zm24.204-31.333c2.405-8.98 2.89-18.375 7.202-25.43 11.58-18.948 23.681-37.791 37.581-55.061 33.66-41.82 29.358-96.168-11.574-130.623-39.204-33-103.222-23.548-130.868 19.32-24.9 38.611-21.916 78.207 9.304 114.66 19.416 22.67 38.49 45.306 40.201 77.134h48.154zm-23.114 35.818c12.53 0 25.067-.264 37.587.078 11.229.307 17.34 6.143 17.162 15.465-.174 9.13-6.557 14.786-17.753 14.869-25.058.186-50.12.194-75.178-.003-11.115-.087-17.684-5.92-17.845-14.949-.162-9.033 6.366-15.12 17.395-15.388 12.87-.311 25.754-.072 38.632-.072zm-.22 65.72c-6.27.002-12.554.245-18.811-.053-10.255-.487-16.596-6.335-16.807-15.032-.197-8.09 5.766-15.05 15.196-15.531 13.548-.691 27.19-.72 40.73.05 9.11.516 15.7 8.204 14.713 15.91-1.178 9.201-6.943 14.183-16.209 14.6-6.259.281-12.54.054-18.812.056z" fill="#f5f6ff"/></svg>