<svg xmlns="http://www.w3.org/2000/svg" width="475.1" height="438.5" viewBox="0 18.3 475.1 438.5"><path fill="#F5F6FF" d="M473.4 433.1c-10.7-4-20.5-6.6-29.4-7.7-8.9-.8-15.5-3-19.7-6.6-2.5-1.5-5.8-7-10-16.3-7.8-15.6-14-29.8-18.6-42.5-7.4-20.2-13.6-35.8-18.6-46.8-10.8-25.3-20-47.7-27.4-67.1-4-10.5-15.8-38.7-35.4-84.8l-58.5-137-3.1-6h-36.5l-80 206.7-67.7 175.8c-5.3 9.9-9.9 16.4-13.7 19.4-4 2.8-14.5 5.8-31.4 8.8-11 2.1-18.7 3.8-22.8 5.1L0 456.8h6c16.4 0 32.3-1.3 47.7-4l13.7-2.3c53.9 3.8 87.1 5.7 99.6 5.7.4-1.9.6-4.5.6-7.7 0-5.7-.1-11.2-.3-16.6-4-.6-7.9-1.1-11.6-1.7-3.7-.6-6.6-1-8.6-1.4-2-.4-3.3-.6-3.9-.6-14.7-2.1-24.5-5.1-29.4-9.1-3.2-2.3-4.9-6.4-4.9-12.3 0-3.8 2.2-11.8 6.6-24 14.3-39.8 24.2-65.9 29.7-78.2l128.5.6 26.3 65.1 13.4 32.5c1.1 3.2 1.7 6.3 1.7 9.1s-1.1 5.4-3.4 7.7c-2.3 1.9-8.8 4.1-19.4 6.6l-37.4 8c-.8 6.3-1.1 13.7-1.1 22.3l16.6-.6 57.1-3.1c10.7-.4 23.5-.6 38.5-.6 18.3 0 36.3.8 54 2.3 21.3 1.5 39.6 2.3 54.8 2.3.2-2.3.3-4.8.3-7.4 0-3.4-.6-8.9-1.7-16.3zM251.2 270.9c-2.7 0-7.7-.1-15-.1-7.3-.1-18.6-.2-34-.4-15.3-.2-29.9-.4-43.8-.6L207 141.3c7.4 15 16.2 35.1 26.3 60.2 11.4 27.8 20.2 50.7 26.3 68.8l-8.4.6z"/></svg>