<svg xmlns="http://www.w3.org/2000/svg" width="221" height="307" viewBox="74.2 0 221 307"><path fill="#F5F6FF" d="M213 33.8c-7.1-10.4-13.3-20-19.2-28.8-.8-1.3-2.1-2.5-3.3-3.3-5-3.3-11.7-1.7-15 3.3-5.4 8.8-11.7 17.9-19.2 28.8-32.9 48.4-82.2 121.4-82.2 163.1 0 30.4 12.5 58 32.5 78 20 19.6 47.5 32.1 78 32.1s58-12.5 78-32.5 32.5-47.5 32.5-78c.1-41.7-49.1-114.3-82.1-162.7zm34.6 225.7c-16.3 16.3-38.4 25.9-63 25.9s-46.7-10-63-25.9c-16.3-16.3-25.9-38.4-25.9-63 0-35 47.1-104.7 78.4-151 3.8-5.4 7.1-10.8 10.4-15.4 3.3 4.6 6.7 10 10.4 15.4 31.3 46.7 78.4 115.9 78.4 151 .2 24.6-9.8 46.7-25.7 63z"/></svg>