<svg xmlns="http://www.w3.org/2000/svg" width="383.122" height="359.06"><g fill="#f5f6ff"><path d="M374.035 354.06H142.737l115.649-196.526 115.649 196.525zM180.65 332.582h155.47l-77.735-132.097-77.735 132.097z"/><path d="M383.122 359.06H133.65l124.735-211.968L383.122 359.06zm-231.298-10h213.124L258.386 167.975 151.824 349.06zm193.384-11.477H171.564l86.822-147.538 86.822 147.538zm-155.47-10h137.296l-68.648-116.655-68.648 116.655z"/></g><g fill="#f5f6ff"><path d="M83.071 149c-42.83 0-77.677-32.299-77.677-72S40.24 5 83.071 5s77.677 32.299 77.677 72-34.846 72-77.677 72zm0-126c-32.123 0-58.258 24.225-58.258 54s26.135 54 58.258 54 58.258-24.225 58.258-54-26.134-54-58.258-54z"/><path d="M83.071 154C37.265 154 0 119.458 0 77S37.265 0 83.071 0s83.071 34.542 83.071 77-37.265 77-83.07 77zm0-144c-39.857 0-72.283 30.056-72.283 67s32.426 67 72.283 67 72.283-30.056 72.283-67-32.426-67-72.283-67zm0 126c-35.098 0-63.652-26.467-63.652-59s28.554-59 63.652-59 63.652 26.467 63.652 59-28.554 59-63.652 59zm0-108c-29.149 0-52.863 21.981-52.863 49s23.714 49 52.863 49 52.864-21.981 52.864-49S112.22 28 83.07 28z"/></g><g fill="#f5f6ff"><path d="M178.715 292.922H87.173c-7.734 0-14.025-5.832-14.025-13v-131.53a81.907 81.907 0 0 1-19.42-4.743v136.273c0 17.094 15.004 31 33.445 31h80.95l10.592-18z"/><path d="M171.325 315.922H87.173c-21.416 0-38.839-16.15-38.839-36V136.199l7.438 2.823a76.373 76.373 0 0 0 18.062 4.412l4.708.56v135.928c0 4.411 3.872 8 8.63 8h100.629l-16.476 28zM59.123 150.719v129.203c0 14.336 12.583 26 28.05 26h77.747l4.708-8H87.173c-10.708 0-19.42-8.075-19.42-18V152.664a88.026 88.026 0 0 1-8.63-1.945z"/></g><g fill="#f5f6ff"><path d="M286.788 89.793c7.733 0 14.025 5.832 14.025 13v126.838l19.419 33V102.792c0-17.094-15.003-31-33.444-31H160.523c.133 1.722.225 3.454.225 5.207 0 4.367-.445 8.638-1.253 12.793h127.293z"/><path d="m325.626 282.24-30.208-51.334V102.793c0-4.411-3.871-8-8.63-8H153.043l1.144-5.887A62.554 62.554 0 0 0 155.354 77c0-1.45-.068-2.991-.211-4.848l-.417-5.359h132.062c21.415 0 38.838 16.15 38.838 36v179.446zm-19.42-53.885 8.632 14.667V102.793c0-14.337-12.584-26-28.05-26H166.142V77c0 2.575-.147 5.18-.438 7.793h121.084c10.708 0 19.419 8.075 19.419 18v125.562z"/></g></svg>